<svg id="Component_28_1" data-name="Component 28 – 1" xmlns="http://www.w3.org/2000/svg" width="20" height="20" viewBox="0 0 27.303 24.572">
  <g id="Group_14024" data-name="Group 14024">
    <path id="Path_130664" data-name="Path 130664" d="M446.538,974.715a6.89,6.89,0,0,1-6.867,6.907H426.129a6.891,6.891,0,0,1-6.894-6.88v-.013s.008-6.042.019-9.082a.683.683,0,0,1,1.1-.534c3.246,2.573,9.044,7.265,9.117,7.327a5.55,5.55,0,0,0,3.454,1.215,5.475,5.475,0,0,0,3.454-1.229c.073-.049,5.744-4.594,9.036-7.216a.683.683,0,0,1,1.107.533C446.538,968.758,446.538,974.715,446.538,974.715Z" transform="translate(-419.235 -957.051)" fill="#85b4db" opacity="0.4"/>
    <path id="Path_130665" data-name="Path 130665" d="M446.112,957.368a6.875,6.875,0,0,0-6.07-3.651H426.418a6.875,6.875,0,0,0-6.071,3.651,1.179,1.179,0,0,0,.3,1.472l10.136,8.107a3.862,3.862,0,0,0,2.43.859h.027a3.862,3.862,0,0,0,2.43-.859l10.136-8.107a1.178,1.178,0,0,0,.3-1.472Z" transform="translate(-419.524 -953.717)" fill="#024c88"/>
  </g>
</svg>
