<svg id="Component_29_1" data-name="Component 29 – 1" xmlns="http://www.w3.org/2000/svg" width="20" height="20" viewBox="0 0 27.302 27.301">
  <path id="Path_130531" data-name="Path 130531" d="M1742.46,858.664h-11.836c-4.623,0-7.733,3.246-7.733,8.077v11.148c0,4.829,3.11,8.075,7.733,8.075h11.836c4.623,0,7.733-3.246,7.733-8.075V866.741C1750.193,861.91,1747.09,858.664,1742.46,858.664Z" transform="translate(-1722.891 -858.664)" fill="#85b4db" opacity="0.4"/>
  <path id="Path_130532" data-name="Path 130532" d="M1745.83,880.115a1.029,1.029,0,0,1-.394-.074,1.048,1.048,0,0,1-.338-.222,1.034,1.034,0,0,1-.218-.334,1.071,1.071,0,0,1-.078-.394v-1.5h-1.815v1.5a1.03,1.03,0,0,1-1.415.949,1.04,1.04,0,0,1-.556-.556,1.069,1.069,0,0,1-.077-.394v-1.5h-2.892a3.493,3.493,0,0,1-3.37,2.526,3.549,3.549,0,1,1,0-7.1,3.491,3.491,0,0,1,3.37,2.525h7.783a1.016,1.016,0,0,1,1.02,1.024v2.525a1.017,1.017,0,0,1-1.02,1.024Zm-11.153-5.05a1.533,1.533,0,0,0-.838.253,1.491,1.491,0,0,0-.549.674,1.512,1.512,0,0,0,.323,1.636,1.5,1.5,0,0,0,1.64.326,1.507,1.507,0,0,0,.922-1.387,1.494,1.494,0,0,0-.436-1.06A1.513,1.513,0,0,0,1734.677,875.065Z" transform="translate(-1725.332 -862.917)" fill="#024c88"/>
</svg>
